<svg height="512pt" viewBox="-41 0 512 512.002" width="512pt" xmlns="http://www.w3.org/2000/svg"><path d="m363.714844 275.519531h57.511718c.71875 3.632813 1.085938 7.386719 1.085938 11.21875v28.117188h-58.597656l-11.753906-19.667969zm0 0" fill="#ffe675"/><path d="m393.011719 334.015625 29.300781 19.160156v17.820313c0 16.183594-13.117188 29.300781-29.296875 29.300781-16.183594 0-29.300781-13.117187-29.300781-29.300781v-17.820313zm0 0" fill="#ffe675"/><path d="m144.199219 408.261719-29.84375 12.28125v51.433593h59.691406v-51.433593zm0 0" fill="#ff6881"/><path d="m285.609375 408.261719 29.847656 12.28125v51.433593h-59.691406v-51.433593zm0 0" fill="#ff6881"/><path d="m174.046875 376.398438v44.144531h-59.691406v-44.144531l29.84375-15.261719zm0 0" fill="#ffe675"/><path d="m144.199219 456.050781c-20.566407 0-37.234375 16.667969-37.234375 37.230469 0 6.195312 5.019531 11.21875 11.214844 11.21875h52.035156c6.195312 0 11.21875-5.023438 11.21875-11.21875 0-20.5625-16.671875-37.230469-37.234375-37.230469zm0 0" fill="#91daff"/><path d="m255.765625 376.398438v44.144531h59.691406v-44.144531l-29.847656-15.261719zm0 0" fill="#ffe675"/><path d="m285.613281 456.050781c20.5625 0 37.234375 16.667969 37.234375 37.230469 0 6.195312-5.023437 11.21875-11.21875 11.21875h-52.03125c-6.195312 0-11.21875-5.023438-11.21875-11.21875 0-20.5625 16.671875-37.230469 37.234375-37.230469zm0 0" fill="#91daff"/><path d="m363.714844 228.132812c28.519531 0 52.285156 20.386719 57.511718 47.386719h-57.511718l-15.070313-23.695312zm0 0" fill="#ff6881"/><path d="m363.714844 314.855469h58.597656v38.320312h-58.597656l-17.726563-19.160156zm0 0" fill="#ff6881"/><path d="m66.097656 275.519531h-57.511718c-.71875 3.632813-1.085938 7.386719-1.085938 11.21875v28.117188h58.597656l11.753906-19.667969zm0 0" fill="#ffe675"/><path d="m36.800781 334.015625-29.300781 19.160156v17.820313c0 16.183594 13.117188 29.300781 29.296875 29.300781 16.183594 0 29.300781-13.117187 29.300781-29.300781v-17.820313zm0 0" fill="#ffe675"/><g fill="#ff6881"><path d="m66.097656 228.132812c-28.523437 0-52.285156 20.386719-57.511718 47.386719h57.511718l15.070313-23.695312zm0 0"/><path d="m66.097656 314.855469h-58.597656v38.320312h58.597656l17.726563-19.160156zm0 0"/><path d="m67.132812 76.40625c-8.375 0-15.167968 6.789062-15.167968 15.167969v51.964843c0 8.375 6.789062 15.167969 15.167968 15.167969h31.292969v-82.300781zm0 0"/><path d="m362.679688 76.40625c8.375 0 15.167968 6.789062 15.167968 15.167969v51.964843c0 8.375-6.789062 15.167969-15.167968 15.167969h-31.292969v-82.300781zm0 0"/></g><path d="m317.59375 7.5h-205.375c-13.117188 0-23.75 10.632812-23.75 23.746094v194.496094h252.875v-194.496094c0-13.113282-10.632812-23.746094-23.75-23.746094zm0 0" fill="#ffe675"/><path d="m142.21875 7.5h-30c-13.117188 0-23.75 10.632812-23.75 23.75v194.492188h30v-194.496094c0-13.113282 10.632812-23.746094 23.75-23.746094zm0 0" fill="#ffb258"/><path d="m187.6875 118.550781h-9.539062c-9.804688 0-17.75 7.953125-17.75 17.757813 0 4.910156 1.980468 9.339844 5.199218 12.554687 3.214844 3.207031 7.65625 5.199219 12.550782 5.199219h9.539062l15.4375-17.757812zm0 0" fill="#91daff"/><path d="m242.125 118.550781h-27.21875l-11.78125 17.753907 11.78125 17.757812h27.21875l13.644531-17.757812zm0 0" fill="#91daff"/><path d="m269.414062 136.308594c0 9.808594-7.945312 17.753906-17.753906 17.753906h-9.535156v-35.511719h9.535156c4.898438 0 9.339844 1.988281 12.554688 5.207031 3.21875 3.203126 5.199218 7.644532 5.199218 12.550782zm0 0" fill="#ececee"/><path d="m187.6875 118.550781h27.21875v35.511719h-27.21875zm0 0" fill="#ececee"/><path d="m255.765625 376.402344v25h59.691406v-25l-29.847656-15.265625zm0 0" fill="#ffb258"/><path d="m114.355469 376.402344v25h59.691406v-25l-29.847656-15.265625zm0 0" fill="#ffb258"/><path d="m341.410156 205.828125h-253.007812c-12.316406 0-22.300782 9.988281-22.300782 22.304687v125.96875c0 12.316407 9.984376 22.300782 22.300782 22.300782h253.007812c12.316406 0 22.304688-9.984375 22.304688-22.300782v-125.96875c-.003906-12.316406-9.988282-22.304687-22.304688-22.304687zm0 0" fill="#91daff"/><path d="m96.101562 354.101562v-125.96875c0-12.316406 9.984376-22.304687 22.300782-22.304687h-30c-12.316406 0-22.300782 9.988281-22.300782 22.304687v125.96875c0 12.316407 9.984376 22.300782 22.300782 22.300782h30c-12.316406 0-22.300782-9.984375-22.300782-22.300782zm0 0" fill="#4d9ae8"/><path d="m250.59375 291.117188c0 13.109374-10.625 23.734374-23.734375 23.734374-13.105469 0-23.734375-10.625-23.734375-23.734374 0-13.109376 10.628906-23.734376 23.734375-23.734376 13.109375 0 23.734375 10.625 23.734375 23.734376zm0 0" fill="#fdfd94"/><path d="m327.609375 291.117188c0 13.109374-10.625 23.734374-23.734375 23.734374s-23.734375-10.625-23.734375-23.734374c0-13.109376 10.625-23.734376 23.734375-23.734376s23.734375 10.625 23.734375 23.734376zm0 0" fill="#fdfd94"/><path d="m161.308594 267.382812h-48.417969c-5.902344 0-10.6875 4.785157-10.6875 10.6875v26.09375c0 5.902344 4.785156 10.6875 10.6875 10.6875h48.417969c5.902344 0 10.6875-4.785156 10.6875-10.6875v-26.09375c0-5.902343-4.785156-10.6875-10.6875-10.6875zm0 0" fill="#ececee"/><path d="m146.710938 83.011719c-4.144532 0-7.5 3.359375-7.5 7.5v16.328125c0 4.140625 3.355468 7.5 7.5 7.5 4.140624 0 7.5-3.359375 7.5-7.5v-16.328125c0-4.140625-3.359376-7.5-7.5-7.5zm0 0"/><path d="m290.601562 106.835938v-16.324219c0-4.140625-3.359374-7.5-7.5-7.5-4.140624 0-7.5 3.359375-7.5 7.5v16.328125c0 4.140625 3.359376 7.5 7.5 7.5 4.140626-.003906 7.5-3.359375 7.5-7.503906zm0 0"/><path d="m251.660156 111.050781h-73.511718c-13.921876 0-25.25 11.332031-25.25 25.257813 0 13.777344 11.488281 25.25 25.25 25.25h73.511718c13.925782 0 25.253906-11.328125 25.253906-25.25 0-13.769532-11.488281-25.257813-25.253906-25.257813zm-80.761718 32.511719c-1.914063-1.917969-3-4.542969-3-7.253906 0-5.65625 4.597656-10.257813 10.25-10.257813h2.039062v20.511719c-3.507812 0-6.675781-.390625-9.289062-3zm24.289062-17.511719h12.21875v20.511719h-12.21875zm27.21875 0h12.21875v20.511719h-12.21875zm29.253906 20.511719h-2.035156v-20.511719c3.519531 0 6.679688.398438 9.296875 3.015625 1.929687 1.925782 2.992187 4.496094 2.992187 7.242188 0 5.652344-4.601562 10.253906-10.253906 10.253906zm0 0"/><path d="m195.625 291.117188c0 17.222656 14.011719 31.234374 31.234375 31.234374s31.234375-14.011718 31.234375-31.234374c0-17.222657-14.011719-31.234376-31.234375-31.234376s-31.234375 14.011719-31.234375 31.234376zm47.46875 0c0 8.953124-7.28125 16.234374-16.234375 16.234374-8.949219 0-16.234375-7.285156-16.234375-16.234374 0-8.953126 7.285156-16.234376 16.234375-16.234376 8.953125 0 16.234375 7.28125 16.234375 16.234376zm0 0"/><path d="m303.875 322.351562c17.222656 0 31.234375-14.011718 31.234375-31.234374 0-17.222657-14.011719-31.234376-31.234375-31.234376s-31.234375 14.011719-31.234375 31.234376c0 17.222656 14.011719 31.234374 31.234375 31.234374zm0-47.46875c8.953125 0 16.234375 7.28125 16.234375 16.234376 0 8.949218-7.28125 16.234374-16.234375 16.234374-8.949219 0-16.234375-7.285156-16.234375-16.234374 0-8.953126 7.28125-16.234376 16.234375-16.234376zm0 0"/><path d="m112.890625 259.882812c-10.03125 0-18.1875 8.160157-18.1875 18.1875v26.089844c0 10.03125 8.15625 18.191406 18.1875 18.191406h48.417969c10.03125 0 18.1875-8.160156 18.1875-18.191406v-26.089844c0-10.03125-8.160156-18.1875-18.1875-18.1875zm51.605469 18.1875v26.089844c0 1.761719-1.429688 3.191406-3.1875 3.191406h-48.417969c-1.757813 0-3.1875-1.429687-3.1875-3.191406v-26.089844c0-1.757812 1.429687-3.1875 3.1875-3.1875h48.417969c1.757812 0 3.1875 1.429688 3.1875 3.1875zm0 0"/><path d="m429.8125 286.738281c0-4.265625-.410156-8.511719-1.21875-12.625 0-.003906 0-.011719-.003906-.019531 0-.003906 0-.007812-.003906-.015625 0-.003906 0-.003906 0-.007813 0-.007812-.003907-.011718-.003907-.019531-5.589843-28.769531-29.542969-50.1875-58.246093-53.074219-2.621094-10.601562-10.929688-18.984374-21.492188-21.707031v-33.0625h13.835938c12.5 0 22.667968-10.167969 22.667968-22.667969v-51.964843c0-12.5-10.167968-22.667969-22.667968-22.667969h-13.835938v-37.660156c0-17.226563-14.019531-31.246094-31.25-31.246094h-136.175781c-4.144531 0-7.5 3.359375-7.5 7.5s3.355469 7.5 7.5 7.5h136.175781c8.960938 0 16.25 7.289062 16.25 16.246094v167.082031h-38.425781c-4.144531 0-7.5 3.359375-7.5 7.5 0 4.144531 3.355469 7.5 7.5 7.5h45.992187c8.160156 0 14.800782 6.644531 14.800782 14.804687v125.96875c0 8.160157-6.640626 14.800782-14.800782 14.800782h-253.007812c-8.164063 0-14.804688-6.640625-14.804688-14.800782v-125.96875c0-8.160156 6.640625-14.804687 14.804688-14.804687h177.011718c4.144532 0 7.5-3.355469 7.5-7.5 0-4.140625-3.355468-7.5-7.5-7.5h-169.445312v-167.082031c0-8.957032 7.289062-16.246094 16.25-16.246094h39.195312c4.144532 0 7.5-3.359375 7.5-7.5s-3.355468-7.5-7.5-7.5h-39.195312c-17.230469 0-31.25 14.019531-31.25 31.246094v37.660156h-13.835938c-12.5 0-22.667968 10.167969-22.667968 22.667969v51.964843c0 12.5 10.167968 22.667969 22.667968 22.667969h13.835938v33.0625c-10.5625 2.722657-18.871094 11.105469-21.496094 21.707031-28.703125 2.886719-52.652344 24.304688-58.242187 53.074219 0 .007813-.003907.011719-.003907.019531v.011719c-.003906.003907-.003906.007813-.003906.015625 0 .003906 0 .011719-.003906.015625-.808594 4.117188-1.21875 8.363281-1.21875 12.628907v84.257812c0 20.292969 16.507812 36.800781 36.800781 36.800781 17.410157 0 32.027344-12.160156 35.828125-28.429687 4.578125 2.867187 9.984375 4.535156 15.773438 4.535156h18.453125v84.792969c-4.664063 7.058593-7.390625 15.507812-7.390625 24.585937 0 10.320313 8.394531 18.71875 18.714844 18.71875h52.035156c10.320312 0 18.71875-8.398437 18.71875-18.71875 0-9.074218-2.722656-17.519531-7.386719-24.582031v-84.796875h66.71875v84.796875c-4.664063 7.0625-7.386719 15.507813-7.386719 24.582031 0 10.320313 8.398438 18.714844 18.71875 18.714844h52.035156c10.320313 0 18.714844-8.394531 18.714844-18.714844 0-9.078125-2.726562-17.527344-7.390625-24.589844v-84.789062h18.453125c5.789063 0 11.195313-1.667969 15.773438-4.535156 3.800781 16.269531 18.417968 28.429687 35.828125 28.429687 20.292969 0 36.800781-16.511719 36.800781-36.800781zm-67.132812-202.832031c4.226562 0 7.667968 3.441406 7.667968 7.667969v51.964843c0 4.230469-3.441406 7.667969-7.667968 7.667969h-13.835938v-67.300781zm8.535156 238.449219h43.597656v23.316406h-43.601562zm43.597656-35.617188v20.617188h-43.601562v-24.335938h43.46875c.085937 1.234375.132812 2.476563.132812 3.71875zm0 84.257813c0 12.023437-9.78125 21.800781-21.800781 21.800781s-21.796875-9.777344-21.796875-21.800781v-10.320313h43.597656zm-3.539062-102.976563h-40.0625v-31.835937c18.089843 2.679687 33.414062 14.917968 40.0625 31.835937zm-244.726563 186.539063c-4.933594-2.859375-10.457031-4.800782-16.339844-5.59375-3.988281-.539063-8.023437-.550782-12.011719 0-5.886718.792968-11.410156 2.730468-16.34375 5.589844v-26.511719h44.695313zm3.667969 42.441406h-52.035156c-2.046876 0-3.714844-1.667969-3.714844-3.714844 0-16.089844 13.65625-29.734375 29.730468-29.734375 16.1875 0 29.734376 13.550781 29.734376 29.734375.003906 2.046875-1.664063 3.714844-3.714844 3.714844zm137.742187-42.445312c-4.929687-2.859376-10.453125-4.796876-16.335937-5.589844-3.984375-.542969-8.03125-.539063-12.011719 0-5.886719.792968-11.410156 2.734375-16.34375 5.59375v-26.515625h44.691406zm3.675781 42.445312h-52.039062c-2.046875 0-3.714844-1.667969-3.714844-3.714844 0-16.082031 13.664063-29.734375 29.734375-29.734375 16.1875 0 29.734375 13.550781 29.734375 29.734375 0 2.046875-1.667968 3.714844-3.714844 3.714844zm-3.675781-113.097656v29.140625h-44.691406v-29.140625zm-141.410156 0v29.140625h-44.695313v-29.140625zm-99.414063-232.695313c-4.230468 0-7.667968-3.4375-7.667968-7.667969v-51.964843c0-4.230469 3.4375-7.667969 7.667968-7.667969h13.835938v67.300781zm-52.132812 171.148438h43.601562v23.316406h-43.601562zm43.597656-15h-43.597656s.042969-23.101563.132812-24.335938h43.464844zm0 63.640625c0 12.023437-9.777344 21.800781-21.796875 21.800781h-.003906c-12.019531 0-21.796875-9.777344-21.796875-21.800781v-10.320313h43.597656zm0-134.8125v31.835937h-40.058594c6.644532-16.917969 21.972657-29.15625 40.058594-31.835937zm0 0"/></svg>